<?xml version="1.0" encoding="utf-8"?>
<!-- Generator: Adobe Illustrator 23.0.1, SVG Export Plug-In . SVG Version: 6.00 Build 0)  -->
<svg version="1.1" id="Ebene_1" xmlns="http://www.w3.org/2000/svg" xmlns:xlink="http://www.w3.org/1999/xlink" x="0px" y="0px"
	 viewBox="0 0 164 164" style="enable-background:new 0 0 164 164;" xml:space="preserve">
<style type="text/css">
	.st0{clip-path:url(#SVGID_2_);}
	.st1{clip-path:url(#SVGID_4_);}
	.st2{opacity:0.8;}
	.st3{clip-path:url(#SVGID_8_);}
	.st4{clip-path:url(#SVGID_10_);}
	.st5{opacity:0.85;}
	.st6{fill:url(#SVGID_13_);}
	.st7{fill:url(#SVGID_14_);}
	.st8{fill:#FFFFFF;}
	.st9{fill:url(#SVGID_15_);}
	.st10{fill:url(#SVGID_16_);}
	.st11{fill:url(#SVGID_17_);}
	.st12{fill:url(#SVGID_18_);}
	.st13{fill:#B46FFF;}
	.st14{fill:#4059F0;}
	.st15{fill:#6BEDF2;}
	.st16{fill:#189EFF;}
	.st17{fill:#55D1F2;}
	.st18{fill:#826EFE;}
	.st19{fill:url(#SVGID_19_);}
</style>
<g>
	<g transform="translate(300,300)" class="st5">
		<linearGradient id="SVGID_2_" gradientUnits="userSpaceOnUse" x1="-215.2615" y1="-167.4767" x2="-215.2615" y2="-270.8331">
			<stop  offset="0" style="stop-color:#B46FFF"/>
			<stop  offset="1" style="stop-color:#4059F0"/>
		</linearGradient>
		<path style="fill:url(#SVGID_2_);" d="M-186.2-263.3c8.5,5.2,15.4,13.3,19.7,22.7c4.4,9.4,6.3,19.9,4.6,29.7
			c-1.7,9.8-7,19-14,26.3c-7,7.3-15.6,12.8-24.9,15.4c-9.4,2.6-19.5,2.3-29.1-0.2c-9.6-2.5-18.7-7.4-25.6-14.6
			c-6.9-7.2-11.4-16.8-13.1-26.9c-1.7-10.1-0.5-20.8,3.7-30.2c4.2-9.4,11.4-17.4,20.2-22.5c8.8-5.1,19.1-7.2,29.4-7.2
			S-194.8-268.5-186.2-263.3z"/>
	</g>
	<g transform="translate(300,300)" class="st5">
		<linearGradient id="SVGID_4_" gradientUnits="userSpaceOnUse" x1="-274.7667" y1="-218" x2="-172.3484" y2="-218">
			<stop  offset="0" style="stop-color:#B46FFF"/>
			<stop  offset="1" style="stop-color:#4059F0"/>
		</linearGradient>
		<path style="fill:url(#SVGID_4_);" d="M-195.7-246c8.1,11.4,16.8,19,20.9,30.6c4.1,11.6,3.5,27.2-4.6,38.8
			c-8.1,11.6-23.8,19.1-38.2,17.9c-14.4-1.2-27.6-11.2-38-22.8c-10.4-11.6-18.1-24.8-19-38.9c-0.9-14.1,5-29,15.4-40.5
			c10.4-11.4,25.4-19.3,36.6-15.6C-211.4-272.7-203.8-257.4-195.7-246z"/>
	</g>
	<g>
		<path class="st8" d="M107.7,89.1c0,14.6-12.4,24.7-25.7,24.7c-13.5,0-25.7-10.1-25.7-24.9c0-7.8,3.3-13.1,9.1-20.8l16.7-22.4h20.6
			L87.8,65.9C97.8,67.2,107.7,76.1,107.7,89.1z M90.5,89c0-5.1-3.8-8.6-8.5-8.6c-4.8,0-8.5,3.6-8.5,8.6s3.7,8.8,8.5,8.8
			C86.7,97.8,90.5,94.1,90.5,89z"/>
	</g>
</g>
</svg>
